<?xml version="1.0" encoding="UTF-8"?>
<svg xmlns="http://www.w3.org/2000/svg" xmlns:xlink="http://www.w3.org/1999/xlink" width="500px" height="500px" viewBox="0 0 500 500" version="1.1">
<defs>
<clipPath id="clip1">
  <path d="M 249.199219 236 L 390.457031 236 L 390.457031 250 L 249.199219 250 Z M 249.199219 236 "/>
</clipPath>
<clipPath id="clip2">
  <path d="M 249.863281 249.871094 L 390.058594 249.871094 L 318.617188 236.203125 Z M 249.863281 249.871094 "/>
</clipPath>
<linearGradient id="linear0" gradientUnits="userSpaceOnUse" x1="-207.522293" y1="781.956299" x2="-205.502106" y2="781.956299" gradientTransform="matrix(69.397202,0,0,-69.397202,14651.321379,54508.595416)">
<stop offset="0" style="stop-color:rgb(71.764706%,58.039216%,9.411765%);stop-opacity:1;"/>
<stop offset="0.5664" style="stop-color:rgb(86.666667%,72.54902%,2.745098%);stop-opacity:1;"/>
<stop offset="1" style="stop-color:rgb(86.666667%,72.54902%,2.745098%);stop-opacity:1;"/>
</linearGradient>
<clipPath id="clip3">
  <path d="M 249.199219 249.199219 L 390.457031 249.199219 L 390.457031 263.859375 L 249.199219 263.859375 Z M 249.199219 249.199219 "/>
</clipPath>
<clipPath id="clip4">
  <path d="M 249.863281 249.871094 L 318.617188 263.542969 L 390.058594 249.871094 Z M 249.863281 249.871094 "/>
</clipPath>
<linearGradient id="linear1" gradientUnits="userSpaceOnUse" x1="-207.522293" y1="781.856812" x2="-205.502106" y2="781.856812" gradientTransform="matrix(69.397202,0,0,-69.397202,14651.321379,54515.36264)">
<stop offset="0" style="stop-color:rgb(63.529412%,50.980392%,11.764706%);stop-opacity:1;"/>
<stop offset="0.6172" style="stop-color:rgb(78.823529%,63.529412%,5.490196%);stop-opacity:1;"/>
<stop offset="1" style="stop-color:rgb(78.823529%,63.529412%,5.490196%);stop-opacity:1;"/>
</linearGradient>
<clipPath id="clip5">
  <path d="M 249.199219 249.199219 L 349 249.199219 L 349 349 L 249.199219 349 Z M 249.199219 249.199219 "/>
</clipPath>
<clipPath id="clip6">
  <path d="M 288.804688 308.152344 L 348.996094 348.996094 L 249.863281 249.871094 Z M 288.804688 308.152344 "/>
</clipPath>
<linearGradient id="linear2" gradientUnits="userSpaceOnUse" x1="-208.334702" y1="781.361816" x2="-206.314499" y2="781.361816" gradientTransform="matrix(49.071363,0,0,-49.071363,10473.131778,38641.948253)">
<stop offset="0" style="stop-color:rgb(71.764706%,58.039216%,9.411765%);stop-opacity:1;"/>
<stop offset="0.5469" style="stop-color:rgb(86.666667%,72.54902%,2.745098%);stop-opacity:1;"/>
<stop offset="1" style="stop-color:rgb(86.666667%,72.54902%,2.745098%);stop-opacity:1;"/>
</linearGradient>
<clipPath id="clip7">
  <path d="M 249.199219 150.585938 L 349 150.585938 L 349 250 L 249.199219 250 Z M 249.199219 150.585938 "/>
</clipPath>
<clipPath id="clip8">
  <path d="M 288.816406 191.589844 L 249.863281 249.871094 L 348.996094 150.738281 Z M 288.816406 191.589844 "/>
</clipPath>
<linearGradient id="linear3" gradientUnits="userSpaceOnUse" x1="-208.334503" y1="782.382019" x2="-206.314301" y2="782.382019" gradientTransform="matrix(49.073691,0,0,-49.073691,10473.600278,38594.655767)">
<stop offset="0" style="stop-color:rgb(71.764706%,58.039216%,9.411765%);stop-opacity:1;"/>
<stop offset="0.4727" style="stop-color:rgb(90.980392%,79.215686%,15.686275%);stop-opacity:1;"/>
<stop offset="1" style="stop-color:rgb(90.980392%,79.215686%,15.686275%);stop-opacity:1;"/>
</linearGradient>
<clipPath id="clip9">
  <path d="M 249.199219 150.585938 L 349 150.585938 L 349 250 L 249.199219 250 Z M 249.199219 150.585938 "/>
</clipPath>
<clipPath id="clip10">
  <path d="M 249.863281 249.871094 L 308.144531 210.929688 L 348.996094 150.738281 Z M 249.863281 249.871094 "/>
</clipPath>
<linearGradient id="linear4" gradientUnits="userSpaceOnUse" x1="-208.334503" y1="782.382019" x2="-206.314301" y2="782.382019" gradientTransform="matrix(49.073691,0,0,-49.073691,10473.600278,38594.655767)">
<stop offset="0" style="stop-color:rgb(63.529412%,50.980392%,11.764706%);stop-opacity:1;"/>
<stop offset="0.6641" style="stop-color:rgb(71.764706%,58.039216%,9.411765%);stop-opacity:1;"/>
<stop offset="1" style="stop-color:rgb(71.764706%,58.039216%,9.411765%);stop-opacity:1;"/>
</linearGradient>
<clipPath id="clip11">
  <path d="M 249.199219 249.199219 L 293 249.199219 L 293 354 L 249.199219 354 Z M 249.199219 249.199219 "/>
</clipPath>
<clipPath id="clip12">
  <path d="M 263.53125 318.625 L 292.785156 353.488281 L 249.863281 249.871094 Z M 263.53125 318.625 "/>
</clipPath>
<linearGradient id="linear5" gradientUnits="userSpaceOnUse" x1="-211.9664" y1="780.485413" x2="-209.946198" y2="780.485413" gradientTransform="matrix(21.248417,0,0,-21.248417,4753.815218,16885.7729)">
<stop offset="0" style="stop-color:rgb(71.764706%,58.039216%,9.411765%);stop-opacity:1;"/>
<stop offset="0.3672" style="stop-color:rgb(79.215686%,63.921569%,5.490196%);stop-opacity:1;"/>
<stop offset="1" style="stop-color:rgb(79.215686%,63.921569%,5.490196%);stop-opacity:1;"/>
</linearGradient>
<clipPath id="clip13">
  <path d="M 249.199219 206.554688 L 354 206.554688 L 354 250 L 249.199219 250 Z M 249.199219 206.554688 "/>
</clipPath>
<clipPath id="clip14">
  <path d="M 308.132812 210.941406 L 249.863281 249.871094 L 353.460938 206.972656 Z M 308.132812 210.941406 "/>
</clipPath>
<linearGradient id="linear6" gradientUnits="userSpaceOnUse" x1="-208.215103" y1="782.088196" x2="-206.194794" y2="782.088196" gradientTransform="matrix(51.282576,0,0,-51.282576,10927.669306,40335.932815)">
<stop offset="0" style="stop-color:rgb(71.764706%,58.039216%,9.411765%);stop-opacity:1;"/>
<stop offset="0.543" style="stop-color:rgb(90.980392%,79.215686%,15.686275%);stop-opacity:1;"/>
<stop offset="1" style="stop-color:rgb(90.980392%,79.215686%,15.686275%);stop-opacity:1;"/>
</linearGradient>
<clipPath id="clip15">
  <path d="M 249.199219 206.554688 L 354 206.554688 L 354 250 L 249.199219 250 Z M 249.199219 206.554688 "/>
</clipPath>
<clipPath id="clip16">
  <path d="M 249.863281 249.871094 L 318.617188 236.210938 L 353.460938 206.972656 Z M 249.863281 249.871094 "/>
</clipPath>
<linearGradient id="linear7" gradientUnits="userSpaceOnUse" x1="-208.215103" y1="782.088196" x2="-206.194794" y2="782.088196" gradientTransform="matrix(51.282576,0,0,-51.282576,10927.669306,40335.932815)">
<stop offset="0" style="stop-color:rgb(63.529412%,50.980392%,11.764706%);stop-opacity:1;"/>
<stop offset="0.9961" style="stop-color:rgb(78.823529%,63.529412%,5.490196%);stop-opacity:1;"/>
<stop offset="1" style="stop-color:rgb(78.823529%,63.529412%,5.490196%);stop-opacity:1;"/>
</linearGradient>
<clipPath id="clip17">
  <path d="M 249.199219 249.199219 L 354 249.199219 L 354 293 L 249.199219 293 Z M 249.199219 249.199219 "/>
</clipPath>
<clipPath id="clip18">
  <path d="M 308.132812 288.832031 L 353.472656 292.796875 L 249.863281 249.871094 Z M 308.132812 288.832031 "/>
</clipPath>
<linearGradient id="linear8" gradientUnits="userSpaceOnUse" x1="-208.214798" y1="781.665588" x2="-206.194702" y2="781.665588" gradientTransform="matrix(51.28711,0,0,-51.28711,10928.603703,40360.732089)">
<stop offset="0" style="stop-color:rgb(71.764706%,58.039216%,9.411765%);stop-opacity:1;"/>
<stop offset="1" style="stop-color:rgb(86.666667%,72.54902%,2.745098%);stop-opacity:1;"/>
</linearGradient>
<clipPath id="clip19">
  <path d="M 249.199219 146 L 293 146 L 293 250 L 249.199219 250 Z M 249.199219 146 "/>
</clipPath>
<clipPath id="clip20">
  <path d="M 263.53125 181.144531 L 249.863281 249.871094 L 292.769531 146.28125 Z M 263.53125 181.144531 "/>
</clipPath>
<linearGradient id="linear9" gradientUnits="userSpaceOnUse" x1="-211.967804" y1="782.947815" x2="-209.947601" y2="782.947815" gradientTransform="matrix(21.24388,0,0,-21.24388,4752.88082,16830.936261)">
<stop offset="0" style="stop-color:rgb(78.823529%,63.529412%,5.490196%);stop-opacity:1;"/>
<stop offset="0.3398" style="stop-color:rgb(90.980392%,79.215686%,15.686275%);stop-opacity:1;"/>
<stop offset="1" style="stop-color:rgb(90.980392%,79.215686%,15.686275%);stop-opacity:1;"/>
</linearGradient>
</defs>
<g id="surface1">
<path style=" stroke:none;fill-rule:nonzero;fill:rgb(86.274511%,7.058824%,9.411765%);fill-opacity:1;" d="M 499.734375 249.871094 C 499.734375 387.871094 387.871094 499.734375 249.871094 499.734375 C 111.863281 499.734375 0 387.871094 0 249.871094 C 0 111.863281 111.863281 0 249.871094 0 C 387.871094 0 499.734375 111.863281 499.734375 249.871094 "/>
<path style=" stroke:none;fill-rule:nonzero;fill:rgb(63.529414%,50.980395%,11.764706%);fill-opacity:1;" d="M 468.75 266.359375 L 456.777344 249.871094 L 468.75 233.394531 L 446.125 249.824219 L 468.75 233.394531 L 449.375 239.691406 L 437.402344 223.214844 L 437.402344 223.203125 L 437.402344 243.578125 L 418.027344 249.871094 L 437.402344 256.164062 L 437.402344 276.539062 L 449.375 260.0625 L 446.21875 250.117188 L 449.375 260.0625 Z M 468.75 266.359375 "/>
<path style=" stroke:none;fill-rule:nonzero;fill:rgb(63.529414%,50.980395%,11.764706%);fill-opacity:1;" d="M 50.359375 260.054688 L 62.332031 276.53125 L 62.332031 256.15625 L 53.605469 249.910156 L 62.332031 256.15625 L 81.707031 249.863281 L 62.332031 243.566406 L 62.332031 223.195312 L 50.359375 239.679688 L 53.335938 249.058594 L 50.359375 239.679688 L 30.984375 233.375 L 42.957031 249.863281 L 30.984375 266.335938 L 53.605469 249.910156 L 30.984375 266.347656 Z M 50.359375 260.054688 "/>
<path style=" stroke:none;fill-rule:nonzero;fill:rgb(63.529414%,50.980395%,11.764706%);fill-opacity:1;" d="M 262.148438 36.746094 L 249.824219 53.605469 L 260.054688 50.359375 L 266.359375 30.984375 L 249.871094 42.957031 L 233.386719 30.984375 L 249.824219 53.605469 Z M 262.148438 36.746094 "/>
<path style=" stroke:none;fill-rule:nonzero;fill:rgb(63.529414%,50.980395%,11.764706%);fill-opacity:1;" d="M 223.203125 62.332031 L 243.578125 62.332031 L 249.871094 81.707031 L 256.164062 62.332031 L 276.539062 62.332031 L 260.054688 50.359375 L 249.824219 53.605469 L 233.386719 30.984375 L 239.679688 50.359375 Z M 223.203125 62.332031 "/>
<path style=" stroke:none;fill-rule:nonzero;fill:rgb(63.529414%,50.980395%,11.764706%);fill-opacity:1;" d="M 276.519531 437.402344 L 256.15625 437.402344 L 249.910156 446.125 L 256.15625 437.402344 L 249.863281 418.027344 L 243.566406 437.402344 L 223.195312 437.402344 L 239.667969 449.375 L 248.417969 446.59375 L 239.667969 449.375 L 233.375 468.75 L 249.863281 456.777344 L 266.335938 468.75 L 260.761719 461.09375 L 266.335938 468.75 L 260.042969 449.375 Z M 276.519531 437.402344 "/>
<path style=" stroke:none;fill-rule:nonzero;fill:rgb(63.529414%,50.980395%,11.764706%);fill-opacity:1;" d="M 363.632812 98.410156 L 378.027344 112.820312 L 368.777344 130.972656 L 369.964844 129.769531 L 368.777344 130.972656 L 386.929688 121.722656 L 401.332031 136.109375 L 401.332031 136.125 L 401.332031 136.109375 L 398.15625 116.003906 L 416.292969 106.753906 L 388.625 111.0625 L 416.292969 106.753906 L 396.179688 103.570312 L 392.988281 83.441406 L 383.738281 101.589844 L 363.632812 98.410156 L 363.625 98.410156 L 363.632812 98.410156 L 363.625 98.410156 Z M 363.632812 98.410156 "/>
<path style=" stroke:none;fill-rule:nonzero;fill:rgb(63.529414%,50.980395%,11.764706%);fill-opacity:1;" d="M 111.105469 388.671875 L 136.097656 401.324219 L 121.707031 386.929688 L 130.945312 368.777344 L 111.105469 388.671875 L 130.945312 368.777344 L 112.804688 378.011719 L 98.402344 363.625 L 98.402344 363.609375 L 98.402344 363.625 L 98.390625 363.625 L 98.402344 363.625 L 101.574219 383.738281 L 83.425781 392.988281 L 111.105469 388.671875 L 83.425781 392.988281 L 103.554688 396.164062 L 106.746094 416.28125 L 115.984375 398.140625 L 136.109375 401.324219 Z M 111.105469 388.671875 "/>
<path style=" stroke:none;fill-rule:nonzero;fill:rgb(63.529414%,50.980395%,11.764706%);fill-opacity:1;" d="M 83.441406 106.746094 L 101.589844 115.984375 L 98.410156 136.097656 L 98.410156 136.109375 L 98.410156 136.097656 L 112.820312 121.707031 L 130.957031 130.957031 L 126.265625 126.28125 L 130.957031 130.957031 L 121.707031 112.804688 L 136.109375 98.402344 L 136.125 98.402344 L 136.109375 98.402344 L 115.996094 101.589844 L 106.746094 83.441406 L 103.570312 103.554688 L 107.488281 107.511719 L 103.570312 103.554688 L 83.449219 106.746094 Z M 83.441406 106.746094 "/>
<path style=" stroke:none;fill-rule:nonzero;fill:rgb(63.529414%,50.980395%,11.764706%);fill-opacity:1;" d="M 416.28125 393 L 398.132812 383.738281 L 401.324219 363.632812 L 401.324219 363.625 L 401.324219 363.632812 L 386.914062 378.027344 L 368.777344 368.777344 L 378.011719 386.929688 L 363.625 401.332031 L 363.609375 401.332031 L 363.625 401.332031 L 383.726562 398.15625 L 392.976562 416.292969 L 392.988281 416.308594 L 392.988281 416.292969 L 396.164062 396.179688 L 416.28125 393 L 416.292969 393 Z M 416.28125 393 "/>
<path style=" stroke:none;fill-rule:nonzero;fill:rgb(63.529414%,50.980395%,11.764706%);fill-opacity:1;" d="M 412.910156 153.46875 L 412.921875 153.484375 L 412.910156 153.46875 L 412.921875 153.484375 L 420.71875 172.296875 L 405.214844 185.527344 L 425.535156 183.933594 L 433.332031 202.75 L 431.164062 174.730469 L 433.351562 177.328125 L 431.164062 174.730469 L 433.332031 202.75 L 438.078125 182.933594 L 458.378906 181.339844 L 447.8125 178.769531 L 458.378906 181.339844 L 441.019531 170.695312 L 445.777344 150.886719 L 430.292969 164.121094 L 412.921875 153.484375 Z M 412.910156 153.46875 "/>
<path style=" stroke:none;fill-rule:nonzero;fill:rgb(63.529414%,50.980395%,11.764706%);fill-opacity:1;" d="M 86.8125 346.261719 L 86.8125 346.246094 L 79.015625 327.433594 L 94.5 314.207031 L 74.199219 315.8125 L 66.402344 296.980469 L 68.566406 325.003906 L 68.558594 325.003906 L 66.402344 296.980469 L 61.644531 316.800781 L 41.34375 318.394531 L 53.257812 321.292969 L 41.34375 318.394531 L 58.703125 329.039062 L 53.957031 348.84375 L 69.441406 335.613281 Z M 86.8125 346.261719 "/>
<path style=" stroke:none;fill-rule:nonzero;fill:rgb(63.529414%,50.980395%,11.764706%);fill-opacity:1;" d="M 150.886719 53.957031 L 164.121094 69.441406 L 153.484375 86.8125 L 153.46875 86.8125 L 153.484375 86.8125 L 172.289062 79.015625 L 185.527344 94.515625 L 183.921875 74.199219 L 202.75 66.402344 L 174.730469 68.566406 L 177.5 66.230469 L 174.730469 68.566406 L 202.75 66.402344 L 182.933594 61.644531 L 181.339844 41.351562 L 178.722656 52.117188 L 181.339844 41.34375 L 170.695312 58.714844 Z M 150.886719 53.957031 "/>
<path style=" stroke:none;fill-rule:nonzero;fill:rgb(63.529414%,50.980395%,11.764706%);fill-opacity:1;" d="M 346.246094 412.921875 L 327.433594 420.730469 L 314.207031 405.230469 L 315.8125 425.535156 L 296.980469 433.332031 L 325.003906 431.164062 L 296.980469 433.332031 L 316.789062 438.078125 L 318.394531 458.390625 L 320.734375 448.769531 L 318.394531 458.390625 L 329.039062 441.019531 L 348.84375 445.777344 L 335.601562 430.28125 Z M 346.246094 412.921875 "/>
<path style=" stroke:none;fill-rule:nonzero;fill:rgb(63.529414%,50.980395%,11.764706%);fill-opacity:1;" d="M 297.007812 66.417969 L 315.820312 74.210938 L 324.929688 68.53125 L 315.820312 74.210938 L 314.21875 94.515625 L 324.929688 68.53125 L 314.21875 94.515625 L 327.457031 79.015625 L 346.273438 86.8125 L 346.273438 86.824219 L 346.273438 86.8125 L 335.628906 69.453125 L 348.855469 53.964844 L 348.867188 53.964844 L 348.855469 53.964844 L 329.054688 58.722656 L 324.929688 68.53125 L 329.054688 58.722656 L 318.402344 41.351562 L 316.808594 61.65625 L 297.007812 66.417969 L 306.945312 67.171875 Z M 297.007812 66.417969 "/>
<path style=" stroke:none;fill-rule:nonzero;fill:rgb(63.529414%,50.980395%,11.764706%);fill-opacity:1;" d="M 202.726562 433.316406 L 183.914062 425.535156 L 185.503906 405.214844 L 174.785156 431.203125 L 178.941406 428.613281 L 174.800781 431.203125 L 174.785156 431.203125 L 185.503906 405.214844 L 172.277344 420.703125 L 153.460938 412.921875 L 153.460938 412.910156 L 153.460938 412.921875 L 164.105469 430.28125 L 150.878906 445.765625 L 150.867188 445.765625 L 150.878906 445.765625 L 170.679688 441.019531 L 174.785156 431.203125 L 170.679688 441.019531 L 181.316406 458.378906 L 181.332031 458.378906 L 181.316406 458.378906 L 182.921875 438.078125 L 202.726562 433.316406 L 192.136719 432.515625 Z M 202.726562 433.316406 "/>
<path style=" stroke:none;fill-rule:nonzero;fill:rgb(63.529414%,50.980395%,11.764706%);fill-opacity:1;" d="M 41.351562 181.316406 L 61.65625 182.921875 L 66.417969 202.726562 L 67.191406 192.371094 L 66.417969 202.726562 L 74.199219 183.914062 L 94.515625 185.503906 L 68.53125 174.800781 L 94.515625 185.503906 L 79.015625 172.277344 L 68.53125 174.800781 L 79.015625 172.277344 L 86.8125 153.46875 L 86.8125 153.460938 L 69.453125 164.105469 L 53.964844 150.878906 L 58.714844 170.679688 L 68.53125 174.800781 L 58.714844 170.679688 L 41.351562 181.316406 L 41.34375 181.316406 Z M 41.351562 181.316406 "/>
<path style=" stroke:none;fill-rule:nonzero;fill:rgb(63.529414%,50.980395%,11.764706%);fill-opacity:1;" d="M 458.378906 318.402344 L 438.0625 316.808594 L 433.316406 297.007812 L 432.25 311.074219 L 433.316406 297.007812 L 425.523438 315.835938 L 431.203125 324.929688 L 425.523438 315.835938 L 405.214844 314.226562 L 431.203125 324.929688 L 405.214844 314.226562 L 420.703125 327.457031 L 412.910156 346.261719 L 412.910156 346.273438 L 430.28125 335.628906 L 445.765625 348.855469 L 441.007812 329.054688 L 431.203125 324.929688 L 441.007812 329.054688 Z M 458.378906 318.402344 "/>
<path style=" stroke:none;fill-rule:nonzero;fill:rgb(63.529414%,50.980395%,11.764706%);fill-opacity:1;" d="M 318.617188 263.558594 L 249.871094 249.871094 L 249.863281 249.871094 L 318.617188 263.542969 L 390.058594 249.871094 L 318.625 236.203125 L 353.460938 206.972656 L 308.132812 210.941406 L 249.863281 249.863281 L 308.144531 210.929688 L 348.996094 150.738281 L 288.816406 191.589844 L 288.804688 191.589844 L 292.769531 146.28125 L 263.53125 181.144531 L 254.292969 227.601562 L 263.53125 181.132812 L 249.863281 109.675781 L 236.191406 181.117188 L 206.945312 146.261719 L 249.863281 249.863281 L 249.863281 249.871094 L 206.945312 146.261719 L 210.917969 191.589844 L 150.738281 150.746094 L 191.589844 210.929688 L 244.183594 246.078125 L 191.582031 210.929688 L 146.246094 206.960938 L 181.097656 236.203125 L 109.675781 249.871094 L 181.132812 263.542969 L 249.863281 249.871094 L 181.105469 263.558594 L 146.246094 292.796875 L 242.183594 253.0625 L 146.246094 292.796875 L 191.582031 288.832031 L 191.589844 288.832031 L 150.738281 348.996094 L 210.917969 308.152344 L 210.902344 308.167969 L 206.9375 353.5 L 249.394531 250.976562 L 206.9375 353.5 L 236.191406 318.636719 L 236.191406 318.625 L 249.863281 390.066406 L 263.53125 318.617188 L 263.53125 318.625 L 292.785156 353.488281 L 288.816406 308.152344 L 348.996094 348.996094 L 292.355469 292.355469 L 348.996094 348.996094 L 308.152344 288.832031 L 353.460938 292.796875 L 353.472656 292.796875 Z M 318.617188 263.558594 "/>
<path style=" stroke:none;fill-rule:evenodd;fill:rgb(90.980393%,79.215688%,15.686275%);fill-opacity:1;" d="M 437.402344 256.164062 L 446.125 249.824219 L 437.402344 276.539062 Z M 437.402344 256.164062 "/>
<path style=" stroke:none;fill-rule:evenodd;fill:rgb(63.529414%,50.980395%,11.764706%);fill-opacity:1;" d="M 449.375 260.0625 L 446.125 249.824219 L 437.402344 276.539062 Z M 449.375 260.0625 "/>
<path style=" stroke:none;fill-rule:evenodd;fill:rgb(78.823531%,63.529414%,5.490196%);fill-opacity:1;" d="M 468.75 266.359375 L 446.125 249.824219 L 449.375 260.0625 Z M 468.75 266.359375 "/>
<path style=" stroke:none;fill-rule:evenodd;fill:rgb(71.372551%,57.647061%,9.803922%);fill-opacity:1;" d="M 456.777344 249.871094 L 446.125 249.824219 L 468.75 266.359375 Z M 456.777344 249.871094 "/>
<path style=" stroke:none;fill-rule:evenodd;fill:rgb(63.529414%,50.980395%,11.764706%);fill-opacity:1;" d="M 468.75 233.394531 L 446.125 249.824219 L 456.777344 249.871094 Z M 468.75 233.394531 "/>
<path style=" stroke:none;fill-rule:evenodd;fill:rgb(90.980393%,79.215688%,15.686275%);fill-opacity:1;" d="M 449.375 239.691406 L 446.125 249.824219 L 468.75 233.394531 Z M 449.375 239.691406 "/>
<path style=" stroke:none;fill-rule:evenodd;fill:rgb(71.372551%,57.647061%,9.803922%);fill-opacity:1;" d="M 449.375 239.691406 L 446.125 249.824219 L 437.402344 223.203125 Z M 449.375 239.691406 "/>
<path style=" stroke:none;fill-rule:evenodd;fill:rgb(90.980393%,79.215688%,15.686275%);fill-opacity:1;" d="M 437.402344 223.214844 L 446.125 249.824219 L 437.402344 243.578125 Z M 437.402344 223.214844 "/>
<path style=" stroke:none;fill-rule:evenodd;fill:rgb(86.666667%,72.549021%,2.745098%);fill-opacity:1;" d="M 437.402344 243.578125 L 446.125 249.824219 L 418.027344 249.871094 Z M 437.402344 243.578125 "/>
<path style=" stroke:none;fill-rule:evenodd;fill:rgb(71.372551%,57.647061%,9.803922%);fill-opacity:1;" d="M 418.027344 249.871094 L 446.125 249.824219 L 437.402344 256.164062 Z M 418.027344 249.871094 "/>
<path style=" stroke:none;fill-rule:evenodd;fill:rgb(63.529414%,50.980395%,11.764706%);fill-opacity:1;" d="M 62.332031 243.566406 L 53.605469 249.898438 L 62.332031 223.195312 Z M 62.332031 243.566406 "/>
<path style=" stroke:none;fill-rule:evenodd;fill:rgb(90.980393%,79.215688%,15.686275%);fill-opacity:1;" d="M 50.359375 239.679688 L 53.605469 249.910156 L 62.332031 223.195312 Z M 50.359375 239.679688 "/>
<path style=" stroke:none;fill-rule:evenodd;fill:rgb(86.666667%,72.549021%,2.745098%);fill-opacity:1;" d="M 30.984375 233.375 L 53.605469 249.898438 L 50.359375 239.679688 Z M 30.984375 233.375 "/>
<path style=" stroke:none;fill-rule:evenodd;fill:rgb(78.823531%,63.529414%,5.490196%);fill-opacity:1;" d="M 42.957031 249.863281 L 53.605469 249.910156 L 30.984375 233.375 Z M 42.957031 249.863281 "/>
<path style=" stroke:none;fill-rule:evenodd;fill:rgb(90.980393%,79.215688%,15.686275%);fill-opacity:1;" d="M 30.984375 266.335938 L 53.605469 249.910156 L 42.957031 249.863281 Z M 30.984375 266.335938 "/>
<path style=" stroke:none;fill-rule:evenodd;fill:rgb(63.529414%,50.980395%,11.764706%);fill-opacity:1;" d="M 50.359375 260.054688 L 53.605469 249.910156 L 30.984375 266.347656 Z M 50.359375 260.054688 "/>
<path style=" stroke:none;fill-rule:evenodd;fill:rgb(78.823531%,63.529414%,5.490196%);fill-opacity:1;" d="M 50.359375 260.054688 L 53.605469 249.910156 L 62.332031 276.53125 Z M 50.359375 260.054688 "/>
<path style=" stroke:none;fill-rule:evenodd;fill:rgb(86.666667%,72.549021%,2.745098%);fill-opacity:1;" d="M 62.332031 276.53125 L 53.605469 249.910156 L 62.332031 256.15625 Z M 62.332031 276.53125 "/>
<path style=" stroke:none;fill-rule:evenodd;fill:rgb(71.372551%,57.647061%,9.803922%);fill-opacity:1;" d="M 62.332031 256.15625 L 53.605469 249.910156 L 81.707031 249.863281 Z M 62.332031 256.15625 "/>
<path style=" stroke:none;fill-rule:evenodd;fill:rgb(78.823531%,63.529414%,5.490196%);fill-opacity:1;" d="M 81.707031 249.863281 L 53.605469 249.910156 L 62.332031 243.566406 Z M 81.707031 249.863281 "/>
<path style=" stroke:none;fill-rule:evenodd;fill:rgb(71.372551%,57.647061%,9.803922%);fill-opacity:1;" d="M 256.164062 62.332031 L 249.824219 53.605469 L 276.539062 62.332031 Z M 256.164062 62.332031 "/>
<path style=" stroke:none;fill-rule:evenodd;fill:rgb(78.823531%,63.529414%,5.490196%);fill-opacity:1;" d="M 260.054688 50.359375 L 249.824219 53.605469 L 276.539062 62.332031 Z M 260.054688 50.359375 "/>
<path style=" stroke:none;fill-rule:evenodd;fill:rgb(63.529414%,50.980395%,11.764706%);fill-opacity:1;" d="M 266.359375 30.984375 L 249.824219 53.605469 L 260.054688 50.359375 Z M 266.359375 30.984375 "/>
<path style=" stroke:none;fill-rule:evenodd;fill:rgb(90.980393%,79.215688%,15.686275%);fill-opacity:1;" d="M 249.871094 42.957031 L 249.824219 53.605469 L 266.359375 30.984375 Z M 249.871094 42.957031 "/>
<path style=" stroke:none;fill-rule:evenodd;fill:rgb(78.823531%,63.529414%,5.490196%);fill-opacity:1;" d="M 233.386719 30.984375 L 249.824219 53.605469 L 249.871094 42.957031 Z M 233.386719 30.984375 "/>
<path style=" stroke:none;fill-rule:evenodd;fill:rgb(90.980393%,79.215688%,15.686275%);fill-opacity:1;" d="M 239.679688 50.359375 L 249.824219 53.605469 L 233.386719 30.984375 Z M 239.679688 50.359375 "/>
<path style=" stroke:none;fill-rule:evenodd;fill:rgb(86.666667%,72.549021%,2.745098%);fill-opacity:1;" d="M 239.679688 50.359375 L 249.824219 53.605469 L 223.203125 62.332031 Z M 239.679688 50.359375 "/>
<path style=" stroke:none;fill-rule:evenodd;fill:rgb(71.372551%,57.647061%,9.803922%);fill-opacity:1;" d="M 223.203125 62.332031 L 249.824219 53.605469 L 243.578125 62.332031 Z M 223.203125 62.332031 "/>
<path style=" stroke:none;fill-rule:evenodd;fill:rgb(78.823531%,63.529414%,5.490196%);fill-opacity:1;" d="M 243.578125 62.332031 L 249.824219 53.605469 L 249.871094 81.707031 Z M 243.578125 62.332031 "/>
<path style=" stroke:none;fill-rule:evenodd;fill:rgb(63.529414%,50.980395%,11.764706%);fill-opacity:1;" d="M 249.871094 81.707031 L 249.824219 53.605469 L 256.164062 62.332031 Z M 249.871094 81.707031 "/>
<path style=" stroke:none;fill-rule:evenodd;fill:rgb(78.823531%,63.529414%,5.490196%);fill-opacity:1;" d="M 243.566406 437.402344 L 249.910156 446.125 L 223.195312 437.402344 Z M 243.566406 437.402344 "/>
<path style=" stroke:none;fill-rule:evenodd;fill:rgb(86.666667%,72.549021%,2.745098%);fill-opacity:1;" d="M 239.667969 449.375 L 249.910156 446.125 L 223.195312 437.402344 Z M 239.667969 449.375 "/>
<path style=" stroke:none;fill-rule:evenodd;fill:rgb(78.431374%,63.529414%,6.666667%);fill-opacity:1;" d="M 233.375 468.75 L 249.910156 446.125 L 239.667969 449.375 Z M 233.375 468.75 "/>
<path style=" stroke:none;fill-rule:evenodd;fill:rgb(63.529414%,50.980395%,11.764706%);fill-opacity:1;" d="M 249.863281 456.777344 L 249.910156 446.125 L 233.375 468.75 Z M 249.863281 456.777344 "/>
<path style=" stroke:none;fill-rule:evenodd;fill:rgb(78.823531%,63.529414%,5.490196%);fill-opacity:1;" d="M 266.335938 468.75 L 249.910156 446.125 L 249.863281 456.777344 Z M 266.335938 468.75 "/>
<path style=" stroke:none;fill-rule:evenodd;fill:rgb(71.372551%,57.647061%,9.803922%);fill-opacity:1;" d="M 260.042969 449.375 L 249.898438 446.125 L 266.335938 468.75 Z M 260.042969 449.375 "/>
<path style=" stroke:none;fill-rule:evenodd;fill:rgb(63.529414%,50.980395%,11.764706%);fill-opacity:1;" d="M 260.042969 449.375 L 249.898438 446.125 L 276.519531 437.402344 Z M 260.042969 449.375 "/>
<path style=" stroke:none;fill-rule:evenodd;fill:rgb(86.666667%,72.549021%,2.745098%);fill-opacity:1;" d="M 276.519531 437.402344 L 249.910156 446.125 L 256.15625 437.402344 Z M 276.519531 437.402344 "/>
<path style=" stroke:none;fill-rule:evenodd;fill:rgb(63.529414%,50.980395%,11.764706%);fill-opacity:1;" d="M 256.15625 437.402344 L 249.910156 446.125 L 249.863281 418.027344 Z M 256.15625 437.402344 "/>
<path style=" stroke:none;fill-rule:evenodd;fill:rgb(90.980393%,79.215688%,15.686275%);fill-opacity:1;" d="M 249.863281 418.027344 L 249.910156 446.125 L 243.566406 437.402344 Z M 249.863281 418.027344 "/>
<path style=" stroke:none;fill-rule:evenodd;fill:rgb(78.823531%,63.529414%,5.490196%);fill-opacity:1;" d="M 386.929688 121.722656 L 388.625 111.0625 L 401.332031 136.125 Z M 386.929688 121.722656 "/>
<path style=" stroke:none;fill-rule:evenodd;fill:rgb(71.372551%,57.647061%,9.803922%);fill-opacity:1;" d="M 398.15625 116.003906 L 388.617188 111.0625 L 401.332031 136.125 Z M 398.15625 116.003906 "/>
<path style=" stroke:none;fill-rule:evenodd;fill:rgb(78.823531%,63.529414%,5.490196%);fill-opacity:1;" d="M 416.292969 106.753906 L 388.625 111.0625 L 398.140625 116.003906 Z M 416.292969 106.753906 "/>
<path style=" stroke:none;fill-rule:evenodd;fill:rgb(86.666667%,72.549021%,2.745098%);fill-opacity:1;" d="M 396.179688 103.570312 L 388.617188 111.0625 L 416.292969 106.753906 Z M 396.179688 103.570312 "/>
<path style=" stroke:none;fill-rule:evenodd;fill:rgb(63.529414%,50.980395%,11.764706%);fill-opacity:1;" d="M 392.988281 83.441406 L 388.625 111.0625 L 396.179688 103.570312 Z M 392.988281 83.441406 "/>
<path style=" stroke:none;fill-rule:evenodd;fill:rgb(90.980393%,79.215688%,15.686275%);fill-opacity:1;" d="M 383.738281 101.589844 L 388.617188 111.0625 L 392.988281 83.441406 Z M 383.738281 101.589844 "/>
<path style=" stroke:none;fill-rule:evenodd;fill:rgb(86.666667%,72.549021%,2.745098%);fill-opacity:1;" d="M 383.738281 101.589844 L 388.617188 111.0625 L 363.625 98.410156 Z M 383.738281 101.589844 "/>
<path style=" stroke:none;fill-rule:evenodd;fill:rgb(90.980393%,79.215688%,15.686275%);fill-opacity:1;" d="M 363.625 98.410156 L 388.617188 111.0625 L 378.027344 112.820312 Z M 363.625 98.410156 "/>
<path style=" stroke:none;fill-rule:evenodd;fill:rgb(86.666667%,72.549021%,2.745098%);fill-opacity:1;" d="M 378.027344 112.820312 L 388.617188 111.0625 L 368.777344 130.972656 Z M 378.027344 112.820312 "/>
<path style=" stroke:none;fill-rule:evenodd;fill:rgb(63.529414%,50.980395%,11.764706%);fill-opacity:1;" d="M 368.777344 130.972656 L 388.617188 111.0625 L 386.929688 121.722656 Z M 368.777344 130.972656 "/>
<path style=" stroke:none;fill-rule:evenodd;fill:rgb(78.823531%,63.529414%,5.490196%);fill-opacity:1;" d="M 112.804688 378.011719 L 111.105469 388.671875 L 98.390625 363.625 Z M 112.804688 378.011719 "/>
<path style=" stroke:none;fill-rule:evenodd;fill:rgb(86.666667%,72.549021%,2.745098%);fill-opacity:1;" d="M 101.574219 383.738281 L 111.105469 388.671875 L 98.402344 363.609375 Z M 101.574219 383.738281 "/>
<path style=" stroke:none;fill-rule:evenodd;fill:rgb(90.980393%,79.215688%,15.686275%);fill-opacity:1;" d="M 83.425781 392.988281 L 111.105469 388.671875 L 101.574219 383.726562 Z M 83.425781 392.988281 "/>
<path style=" stroke:none;fill-rule:evenodd;fill:rgb(71.372551%,57.647061%,9.803922%);fill-opacity:1;" d="M 103.554688 396.164062 L 111.105469 388.671875 L 83.425781 392.988281 Z M 103.554688 396.164062 "/>
<path style=" stroke:none;fill-rule:evenodd;fill:rgb(86.666667%,72.549021%,2.745098%);fill-opacity:1;" d="M 106.746094 416.28125 L 111.105469 388.671875 L 103.554688 396.164062 Z M 106.746094 416.28125 "/>
<path style=" stroke:none;fill-rule:evenodd;fill:rgb(63.529414%,50.980395%,11.764706%);fill-opacity:1;" d="M 115.984375 398.140625 L 111.105469 388.671875 L 106.746094 416.292969 Z M 115.984375 398.140625 "/>
<path style=" stroke:none;fill-rule:evenodd;fill:rgb(78.823531%,63.529414%,5.490196%);fill-opacity:1;" d="M 115.984375 398.140625 L 111.105469 388.671875 L 136.109375 401.324219 Z M 115.984375 398.140625 "/>
<path style=" stroke:none;fill-rule:evenodd;fill:rgb(71.372551%,57.647061%,9.803922%);fill-opacity:1;" d="M 136.097656 401.324219 L 111.105469 388.671875 L 121.707031 386.929688 Z M 136.097656 401.324219 "/>
<path style=" stroke:none;fill-rule:evenodd;fill:rgb(63.529414%,50.980395%,11.764706%);fill-opacity:1;" d="M 121.707031 386.929688 L 111.105469 388.671875 L 130.945312 368.777344 Z M 121.707031 386.929688 "/>
<path style=" stroke:none;fill-rule:evenodd;fill:rgb(86.666667%,72.549021%,2.745098%);fill-opacity:1;" d="M 130.945312 368.777344 L 111.105469 388.671875 L 112.804688 378.011719 Z M 130.945312 368.777344 "/>
<path style=" stroke:none;fill-rule:evenodd;fill:rgb(63.529414%,50.980395%,11.764706%);fill-opacity:1;" d="M 121.707031 112.804688 L 111.0625 111.105469 L 136.125 98.402344 Z M 121.707031 112.804688 "/>
<path style=" stroke:none;fill-rule:evenodd;fill:rgb(86.666667%,72.549021%,2.745098%);fill-opacity:1;" d="M 115.996094 101.589844 L 111.0625 111.105469 L 136.125 98.402344 Z M 115.996094 101.589844 "/>
<path style=" stroke:none;fill-rule:evenodd;fill:rgb(63.529414%,50.980395%,11.764706%);fill-opacity:1;" d="M 106.746094 83.441406 L 111.0625 111.105469 L 115.996094 101.589844 Z M 106.746094 83.441406 "/>
<path style=" stroke:none;fill-rule:evenodd;fill:rgb(90.980393%,79.215688%,15.686275%);fill-opacity:1;" d="M 103.570312 103.554688 L 111.0625 111.105469 L 106.746094 83.441406 Z M 103.570312 103.554688 "/>
<path style=" stroke:none;fill-rule:evenodd;fill:rgb(86.666667%,72.549021%,2.745098%);fill-opacity:1;" d="M 83.441406 106.746094 L 111.0625 111.105469 L 103.570312 103.554688 Z M 83.441406 106.746094 "/>
<path style=" stroke:none;fill-rule:evenodd;fill:rgb(78.823531%,63.529414%,5.490196%);fill-opacity:1;" d="M 101.589844 115.984375 L 111.0625 111.105469 L 83.441406 106.746094 Z M 101.589844 115.984375 "/>
<path style=" stroke:none;fill-rule:evenodd;fill:rgb(90.980393%,79.215688%,15.686275%);fill-opacity:1;" d="M 101.589844 115.984375 L 111.0625 111.105469 L 98.410156 136.109375 Z M 101.589844 115.984375 "/>
<path style=" stroke:none;fill-rule:evenodd;fill:rgb(63.529414%,50.980395%,11.764706%);fill-opacity:1;" d="M 98.410156 136.109375 L 111.0625 111.105469 L 112.820312 121.707031 Z M 98.410156 136.109375 "/>
<path style=" stroke:none;fill-rule:evenodd;fill:rgb(78.823531%,63.529414%,5.490196%);fill-opacity:1;" d="M 112.820312 121.707031 L 111.0625 111.105469 L 130.957031 130.957031 Z M 112.820312 121.707031 "/>
<path style=" stroke:none;fill-rule:evenodd;fill:rgb(71.372551%,57.647061%,9.803922%);fill-opacity:1;" d="M 130.957031 130.957031 L 111.0625 111.105469 L 121.707031 112.804688 Z M 130.957031 130.957031 "/>
<path style=" stroke:none;fill-rule:evenodd;fill:rgb(86.666667%,72.549021%,2.745098%);fill-opacity:1;" d="M 378.011719 386.929688 L 388.671875 388.617188 L 363.609375 401.332031 Z M 378.011719 386.929688 "/>
<path style=" stroke:none;fill-rule:evenodd;fill:rgb(71.372551%,57.647061%,9.803922%);fill-opacity:1;" d="M 383.726562 398.15625 L 388.671875 388.617188 L 363.609375 401.332031 Z M 383.726562 398.15625 "/>
<path style=" stroke:none;fill-rule:evenodd;fill:rgb(78.823531%,63.529414%,5.490196%);fill-opacity:1;" d="M 392.988281 416.308594 L 388.671875 388.617188 L 383.726562 398.140625 Z M 392.988281 416.308594 "/>
<path style=" stroke:none;fill-rule:evenodd;fill:rgb(63.529414%,50.980395%,11.764706%);fill-opacity:1;" d="M 396.164062 396.179688 L 388.671875 388.617188 L 392.988281 416.308594 Z M 396.164062 396.179688 "/>
<path style=" stroke:none;fill-rule:evenodd;fill:rgb(71.372551%,57.647061%,9.803922%);fill-opacity:1;" d="M 416.28125 393 L 388.671875 388.617188 L 396.164062 396.179688 Z M 416.28125 393 "/>
<path style=" stroke:none;fill-rule:evenodd;fill:rgb(78.823531%,63.529414%,5.490196%);fill-opacity:1;" d="M 398.132812 383.738281 L 388.671875 388.617188 L 416.292969 393 Z M 398.132812 383.738281 "/>
<path style=" stroke:none;fill-rule:evenodd;fill:rgb(71.372551%,57.647061%,9.803922%);fill-opacity:1;" d="M 398.132812 383.738281 L 388.671875 388.617188 L 401.324219 363.625 Z M 398.132812 383.738281 "/>
<path style=" stroke:none;fill-rule:evenodd;fill:rgb(90.980393%,79.215688%,15.686275%);fill-opacity:1;" d="M 401.324219 363.625 L 388.671875 388.617188 L 386.914062 378.027344 Z M 401.324219 363.625 "/>
<path style=" stroke:none;fill-rule:evenodd;fill:rgb(86.666667%,72.549021%,2.745098%);fill-opacity:1;" d="M 386.914062 378.027344 L 388.671875 388.617188 L 368.777344 368.777344 Z M 386.914062 378.027344 "/>
<path style=" stroke:none;fill-rule:evenodd;fill:rgb(90.980393%,79.215688%,15.686275%);fill-opacity:1;" d="M 368.777344 368.777344 L 388.671875 388.617188 L 378.011719 386.929688 Z M 368.777344 368.777344 "/>
<path style=" stroke:none;fill-rule:evenodd;fill:rgb(86.666667%,72.549021%,2.745098%);fill-opacity:1;" d="M 425.535156 183.933594 L 431.164062 174.730469 L 433.332031 202.75 Z M 425.535156 183.933594 "/>
<path style=" stroke:none;fill-rule:evenodd;fill:rgb(63.529414%,50.980395%,11.764706%);fill-opacity:1;" d="M 438.078125 182.933594 L 431.164062 174.730469 L 433.332031 202.75 Z M 438.078125 182.933594 "/>
<path style=" stroke:none;fill-rule:evenodd;fill:rgb(71.372551%,57.647061%,9.803922%);fill-opacity:1;" d="M 458.378906 181.339844 L 431.164062 174.730469 L 438.078125 182.933594 Z M 458.378906 181.339844 "/>
<path style=" stroke:none;fill-rule:evenodd;fill:rgb(78.823531%,63.529414%,5.490196%);fill-opacity:1;" d="M 441.019531 170.695312 L 431.164062 174.730469 L 458.378906 181.339844 Z M 441.019531 170.695312 "/>
<path style=" stroke:none;fill-rule:evenodd;fill:rgb(63.529414%,50.980395%,11.764706%);fill-opacity:1;" d="M 445.777344 150.886719 L 431.164062 174.730469 L 441.019531 170.707031 Z M 445.777344 150.886719 "/>
<path style=" stroke:none;fill-rule:evenodd;fill:rgb(86.666667%,72.549021%,2.745098%);fill-opacity:1;" d="M 430.292969 164.121094 L 431.164062 174.730469 L 445.777344 150.886719 Z M 430.292969 164.121094 "/>
<path style=" stroke:none;fill-rule:evenodd;fill:rgb(78.823531%,63.529414%,5.490196%);fill-opacity:1;" d="M 430.292969 164.121094 L 431.164062 174.730469 L 412.910156 153.46875 Z M 430.292969 164.121094 "/>
<path style=" stroke:none;fill-rule:evenodd;fill:rgb(90.980393%,79.215688%,15.686275%);fill-opacity:1;" d="M 412.910156 153.46875 L 431.164062 174.730469 L 420.71875 172.296875 Z M 412.910156 153.46875 "/>
<path style=" stroke:none;fill-rule:evenodd;fill:rgb(86.666667%,72.549021%,2.745098%);fill-opacity:1;" d="M 420.71875 172.296875 L 431.164062 174.730469 L 405.214844 185.527344 Z M 420.71875 172.296875 "/>
<path style=" stroke:none;fill-rule:evenodd;fill:rgb(71.372551%,57.647061%,9.803922%);fill-opacity:1;" d="M 405.214844 185.527344 L 431.164062 174.730469 L 425.535156 183.933594 Z M 405.214844 185.527344 "/>
<path style=" stroke:none;fill-rule:evenodd;fill:rgb(63.529414%,50.980395%,11.764706%);fill-opacity:1;" d="M 74.199219 315.8125 L 68.566406 325.003906 L 66.402344 296.980469 Z M 74.199219 315.8125 "/>
<path style=" stroke:none;fill-rule:evenodd;fill:rgb(90.980393%,79.215688%,15.686275%);fill-opacity:1;" d="M 61.644531 316.800781 L 68.558594 325.003906 L 66.402344 296.980469 Z M 61.644531 316.800781 "/>
<path style=" stroke:none;fill-rule:evenodd;fill:rgb(86.666667%,72.549021%,2.745098%);fill-opacity:1;" d="M 41.34375 318.394531 L 68.566406 325.003906 L 61.644531 316.800781 Z M 41.34375 318.394531 "/>
<path style=" stroke:none;fill-rule:evenodd;fill:rgb(78.823531%,63.529414%,5.490196%);fill-opacity:1;" d="M 58.703125 329.039062 L 68.558594 325.003906 L 41.34375 318.394531 Z M 58.703125 329.039062 "/>
<path style=" stroke:none;fill-rule:evenodd;fill:rgb(90.980393%,79.215688%,15.686275%);fill-opacity:1;" d="M 53.957031 348.84375 L 68.566406 325.003906 L 58.703125 329.039062 Z M 53.957031 348.84375 "/>
<path style=" stroke:none;fill-rule:evenodd;fill:rgb(63.529414%,50.980395%,11.764706%);fill-opacity:1;" d="M 69.441406 335.613281 L 68.566406 325.003906 L 53.957031 348.84375 Z M 69.441406 335.613281 "/>
<path style=" stroke:none;fill-rule:evenodd;fill:rgb(71.372551%,57.647061%,9.803922%);fill-opacity:1;" d="M 69.441406 335.613281 L 68.566406 325.003906 L 86.8125 346.261719 Z M 69.441406 335.613281 "/>
<path style=" stroke:none;fill-rule:evenodd;fill:rgb(86.666667%,72.549021%,2.745098%);fill-opacity:1;" d="M 86.8125 346.261719 L 68.558594 325.003906 L 79.015625 327.433594 Z M 86.8125 346.261719 "/>
<path style=" stroke:none;fill-rule:evenodd;fill:rgb(63.529414%,50.980395%,11.764706%);fill-opacity:1;" d="M 79.015625 327.433594 L 68.566406 325.003906 L 94.5 314.207031 Z M 79.015625 327.433594 "/>
<path style=" stroke:none;fill-rule:evenodd;fill:rgb(86.666667%,72.549021%,2.745098%);fill-opacity:1;" d="M 94.5 314.207031 L 68.566406 325.003906 L 74.199219 315.8125 Z M 94.5 314.207031 "/>
<path style=" stroke:none;fill-rule:evenodd;fill:rgb(63.529414%,50.980395%,11.764706%);fill-opacity:1;" d="M 183.921875 74.199219 L 174.730469 68.566406 L 202.75 66.402344 Z M 183.921875 74.199219 "/>
<path style=" stroke:none;fill-rule:evenodd;fill:rgb(78.823531%,63.529414%,5.490196%);fill-opacity:1;" d="M 182.933594 61.644531 L 174.730469 68.566406 L 202.75 66.402344 Z M 182.933594 61.644531 "/>
<path style=" stroke:none;fill-rule:evenodd;fill:rgb(63.529414%,50.980395%,11.764706%);fill-opacity:1;" d="M 181.339844 41.351562 L 174.730469 68.566406 L 182.933594 61.65625 Z M 181.339844 41.351562 "/>
<path style=" stroke:none;fill-rule:evenodd;fill:rgb(90.980393%,79.215688%,15.686275%);fill-opacity:1;" d="M 170.695312 58.714844 L 174.730469 68.566406 L 181.339844 41.34375 Z M 170.695312 58.714844 "/>
<path style=" stroke:none;fill-rule:evenodd;fill:rgb(86.666667%,72.549021%,2.745098%);fill-opacity:1;" d="M 150.886719 53.957031 L 174.730469 68.566406 L 170.695312 58.714844 Z M 150.886719 53.957031 "/>
<path style=" stroke:none;fill-rule:evenodd;fill:rgb(78.823531%,63.529414%,5.490196%);fill-opacity:1;" d="M 164.121094 69.441406 L 174.730469 68.566406 L 150.886719 53.957031 Z M 164.121094 69.441406 "/>
<path style=" stroke:none;fill-rule:evenodd;fill:rgb(90.980393%,79.215688%,15.686275%);fill-opacity:1;" d="M 164.121094 69.441406 L 174.730469 68.566406 L 153.484375 86.8125 Z M 164.121094 69.441406 "/>
<path style=" stroke:none;fill-rule:evenodd;fill:rgb(63.529414%,50.980395%,11.764706%);fill-opacity:1;" d="M 153.46875 86.8125 L 174.730469 68.566406 L 172.289062 79.015625 Z M 153.46875 86.8125 "/>
<path style=" stroke:none;fill-rule:evenodd;fill:rgb(78.823531%,63.529414%,5.490196%);fill-opacity:1;" d="M 172.289062 79.015625 L 174.730469 68.566406 L 185.527344 94.515625 Z M 172.289062 79.015625 "/>
<path style=" stroke:none;fill-rule:evenodd;fill:rgb(63.529414%,50.980395%,11.764706%);fill-opacity:1;" d="M 185.527344 94.515625 L 174.730469 68.566406 L 183.921875 74.199219 Z M 185.527344 94.515625 "/>
<path style=" stroke:none;fill-rule:evenodd;fill:rgb(86.666667%,72.549021%,2.745098%);fill-opacity:1;" d="M 315.8125 425.535156 L 325.003906 431.164062 L 296.980469 433.332031 Z M 315.8125 425.535156 "/>
<path style=" stroke:none;fill-rule:evenodd;fill:rgb(71.372551%,57.647061%,9.803922%);fill-opacity:1;" d="M 316.789062 438.078125 L 325.003906 431.164062 L 296.980469 433.332031 Z M 316.789062 438.078125 "/>
<path style=" stroke:none;fill-rule:evenodd;fill:rgb(78.823531%,63.529414%,5.490196%);fill-opacity:1;" d="M 318.394531 458.390625 L 325.003906 431.164062 L 316.789062 438.078125 Z M 318.394531 458.390625 "/>
<path style=" stroke:none;fill-rule:evenodd;fill:rgb(63.529414%,50.980395%,11.764706%);fill-opacity:1;" d="M 329.039062 441.019531 L 325.003906 431.164062 L 318.394531 458.390625 Z M 329.039062 441.019531 "/>
<path style=" stroke:none;fill-rule:evenodd;fill:rgb(71.372551%,57.647061%,9.803922%);fill-opacity:1;" d="M 348.84375 445.777344 L 325.003906 431.164062 L 329.039062 441.019531 Z M 348.84375 445.777344 "/>
<path style=" stroke:none;fill-rule:evenodd;fill:rgb(78.823531%,63.529414%,5.490196%);fill-opacity:1;" d="M 335.601562 430.28125 L 325.003906 431.164062 L 348.84375 445.777344 Z M 335.601562 430.28125 "/>
<path style=" stroke:none;fill-rule:evenodd;fill:rgb(63.529414%,50.980395%,11.764706%);fill-opacity:1;" d="M 335.601562 430.28125 L 325.003906 431.164062 L 346.246094 412.921875 Z M 335.601562 430.28125 "/>
<path style=" stroke:none;fill-rule:evenodd;fill:rgb(86.666667%,72.549021%,2.745098%);fill-opacity:1;" d="M 346.246094 412.921875 L 325.003906 431.164062 L 327.433594 420.730469 Z M 346.246094 412.921875 "/>
<path style=" stroke:none;fill-rule:evenodd;fill:rgb(78.823531%,63.529414%,5.490196%);fill-opacity:1;" d="M 327.433594 420.730469 L 325.003906 431.164062 L 314.207031 405.230469 Z M 327.433594 420.730469 "/>
<path style=" stroke:none;fill-rule:evenodd;fill:rgb(90.980393%,79.215688%,15.686275%);fill-opacity:1;" d="M 314.207031 405.230469 L 325.003906 431.164062 L 315.8125 425.535156 Z M 314.207031 405.230469 "/>
<path style=" stroke:none;fill-rule:evenodd;fill:rgb(78.823531%,63.529414%,5.490196%);fill-opacity:1;" d="M 327.457031 79.015625 L 324.929688 68.53125 L 346.273438 86.824219 Z M 327.457031 79.015625 "/>
<path style=" stroke:none;fill-rule:evenodd;fill:rgb(71.372551%,57.647061%,9.803922%);fill-opacity:1;" d="M 335.628906 69.453125 L 324.929688 68.53125 L 346.273438 86.824219 Z M 335.628906 69.453125 "/>
<path style=" stroke:none;fill-rule:evenodd;fill:rgb(63.529414%,50.980395%,11.764706%);fill-opacity:1;" d="M 348.855469 53.964844 L 324.929688 68.53125 L 335.628906 69.464844 Z M 348.855469 53.964844 "/>
<path style=" stroke:none;fill-rule:evenodd;fill:rgb(78.823531%,63.529414%,5.490196%);fill-opacity:1;" d="M 329.054688 58.722656 L 324.929688 68.53125 L 348.867188 53.964844 Z M 329.054688 58.722656 "/>
<path style=" stroke:none;fill-rule:evenodd;fill:rgb(71.372551%,57.647061%,9.803922%);fill-opacity:1;" d="M 318.402344 41.351562 L 324.929688 68.53125 L 329.054688 58.722656 Z M 318.402344 41.351562 "/>
<path style=" stroke:none;fill-rule:evenodd;fill:rgb(90.980393%,79.215688%,15.686275%);fill-opacity:1;" d="M 316.808594 61.65625 L 324.929688 68.53125 L 318.402344 41.351562 Z M 316.808594 61.65625 "/>
<path style=" stroke:none;fill-rule:evenodd;fill:rgb(86.666667%,72.549021%,2.745098%);fill-opacity:1;" d="M 316.808594 61.65625 L 324.929688 68.53125 L 297.007812 66.417969 Z M 316.808594 61.65625 "/>
<path style=" stroke:none;fill-rule:evenodd;fill:rgb(78.823531%,63.529414%,5.490196%);fill-opacity:1;" d="M 297.007812 66.417969 L 324.929688 68.53125 L 315.820312 74.210938 Z M 297.007812 66.417969 "/>
<path style=" stroke:none;fill-rule:evenodd;fill:rgb(86.666667%,72.549021%,2.745098%);fill-opacity:1;" d="M 315.820312 74.210938 L 324.929688 68.53125 L 314.21875 94.515625 Z M 315.820312 74.210938 "/>
<path style=" stroke:none;fill-rule:evenodd;fill:rgb(71.372551%,57.647061%,9.803922%);fill-opacity:1;" d="M 314.21875 94.515625 L 324.929688 68.53125 L 327.457031 79.015625 Z M 314.21875 94.515625 "/>
<path style=" stroke:none;fill-rule:evenodd;fill:rgb(86.666667%,72.549021%,2.745098%);fill-opacity:1;" d="M 172.277344 420.703125 L 174.785156 431.203125 L 153.460938 412.921875 Z M 172.277344 420.703125 "/>
<path style=" stroke:none;fill-rule:evenodd;fill:rgb(78.823531%,63.529414%,5.490196%);fill-opacity:1;" d="M 164.105469 430.28125 L 174.785156 431.203125 L 153.460938 412.910156 Z M 164.105469 430.28125 "/>
<path style=" stroke:none;fill-rule:evenodd;fill:rgb(90.980393%,79.215688%,15.686275%);fill-opacity:1;" d="M 150.867188 445.765625 L 174.800781 431.203125 L 164.105469 430.28125 Z M 150.867188 445.765625 "/>
<path style=" stroke:none;fill-rule:evenodd;fill:rgb(63.529414%,50.980395%,11.764706%);fill-opacity:1;" d="M 170.679688 441.019531 L 174.785156 431.203125 L 150.867188 445.765625 Z M 170.679688 441.019531 "/>
<path style=" stroke:none;fill-rule:evenodd;fill:rgb(78.823531%,63.529414%,5.490196%);fill-opacity:1;" d="M 181.332031 458.378906 L 174.800781 431.203125 L 170.679688 441.019531 Z M 181.332031 458.378906 "/>
<path style=" stroke:none;fill-rule:evenodd;fill:rgb(63.529414%,50.980395%,11.764706%);fill-opacity:1;" d="M 182.921875 438.078125 L 174.785156 431.203125 L 181.316406 458.378906 Z M 182.921875 438.078125 "/>
<path style=" stroke:none;fill-rule:evenodd;fill:rgb(86.666667%,72.549021%,2.745098%);fill-opacity:1;" d="M 182.921875 438.078125 L 174.785156 431.203125 L 202.726562 433.316406 Z M 182.921875 438.078125 "/>
<path style=" stroke:none;fill-rule:evenodd;fill:rgb(78.823531%,63.529414%,5.490196%);fill-opacity:1;" d="M 202.726562 433.316406 L 174.785156 431.203125 L 183.914062 425.535156 Z M 202.726562 433.316406 "/>
<path style=" stroke:none;fill-rule:evenodd;fill:rgb(63.529414%,50.980395%,11.764706%);fill-opacity:1;" d="M 183.914062 425.535156 L 174.785156 431.203125 L 185.503906 405.214844 Z M 183.914062 425.535156 "/>
<path style=" stroke:none;fill-rule:evenodd;fill:rgb(90.980393%,79.215688%,15.686275%);fill-opacity:1;" d="M 185.503906 405.214844 L 174.785156 431.203125 L 172.277344 420.703125 Z M 185.503906 405.214844 "/>
<path style=" stroke:none;fill-rule:evenodd;fill:rgb(63.529414%,50.980395%,11.764706%);fill-opacity:1;" d="M 79.015625 172.277344 L 68.53125 174.800781 L 86.8125 153.460938 Z M 79.015625 172.277344 "/>
<path style=" stroke:none;fill-rule:evenodd;fill:rgb(86.666667%,72.549021%,2.745098%);fill-opacity:1;" d="M 69.453125 164.105469 L 68.53125 174.800781 L 86.8125 153.460938 Z M 69.453125 164.105469 "/>
<path style=" stroke:none;fill-rule:evenodd;fill:rgb(78.823531%,63.529414%,5.490196%);fill-opacity:1;" d="M 53.964844 150.878906 L 68.53125 174.800781 L 69.453125 164.105469 Z M 53.964844 150.878906 "/>
<path style=" stroke:none;fill-rule:evenodd;fill:rgb(86.666667%,72.549021%,2.745098%);fill-opacity:1;" d="M 58.714844 170.679688 L 68.53125 174.800781 L 53.964844 150.878906 Z M 58.714844 170.679688 "/>
<path style=" stroke:none;fill-rule:evenodd;fill:rgb(90.980393%,79.215688%,15.686275%);fill-opacity:1;" d="M 41.351562 181.316406 L 68.53125 174.800781 L 58.714844 170.679688 Z M 41.351562 181.316406 "/>
<path style=" stroke:none;fill-rule:evenodd;fill:rgb(71.372551%,57.647061%,9.803922%);fill-opacity:1;" d="M 61.65625 182.921875 L 68.53125 174.800781 L 41.34375 181.316406 Z M 61.65625 182.921875 "/>
<path style=" stroke:none;fill-rule:evenodd;fill:rgb(78.823531%,63.529414%,5.490196%);fill-opacity:1;" d="M 61.65625 182.921875 L 68.53125 174.800781 L 66.417969 202.726562 Z M 61.65625 182.921875 "/>
<path style=" stroke:none;fill-rule:evenodd;fill:rgb(63.529414%,50.980395%,11.764706%);fill-opacity:1;" d="M 66.417969 202.726562 L 68.53125 174.800781 L 74.199219 183.914062 Z M 66.417969 202.726562 "/>
<path style=" stroke:none;fill-rule:evenodd;fill:rgb(71.372551%,57.647061%,9.803922%);fill-opacity:1;" d="M 74.199219 183.914062 L 68.53125 174.800781 L 94.515625 185.503906 Z M 74.199219 183.914062 "/>
<path style=" stroke:none;fill-rule:evenodd;fill:rgb(78.823531%,63.529414%,5.490196%);fill-opacity:1;" d="M 94.515625 185.503906 L 68.53125 174.800781 L 79.015625 172.277344 Z M 94.515625 185.503906 "/>
<path style=" stroke:none;fill-rule:evenodd;fill:rgb(90.980393%,79.215688%,15.686275%);fill-opacity:1;" d="M 420.703125 327.457031 L 431.203125 324.929688 L 412.910156 346.273438 Z M 420.703125 327.457031 "/>
<path style=" stroke:none;fill-rule:evenodd;fill:rgb(63.529414%,50.980395%,11.764706%);fill-opacity:1;" d="M 430.28125 335.628906 L 431.203125 324.929688 L 412.910156 346.273438 Z M 430.28125 335.628906 "/>
<path style=" stroke:none;fill-rule:evenodd;fill:rgb(78.823531%,63.529414%,5.490196%);fill-opacity:1;" d="M 445.765625 348.855469 L 431.203125 324.929688 L 430.28125 335.628906 Z M 445.765625 348.855469 "/>
<path style=" stroke:none;fill-rule:evenodd;fill:rgb(86.666667%,72.549021%,2.745098%);fill-opacity:1;" d="M 441.007812 329.054688 L 431.203125 324.929688 L 445.765625 348.855469 Z M 441.007812 329.054688 "/>
<path style=" stroke:none;fill-rule:evenodd;fill:rgb(71.372551%,57.647061%,9.803922%);fill-opacity:1;" d="M 458.378906 318.402344 L 431.203125 324.929688 L 441.007812 329.054688 Z M 458.378906 318.402344 "/>
<path style=" stroke:none;fill-rule:evenodd;fill:rgb(86.666667%,72.549021%,2.745098%);fill-opacity:1;" d="M 438.0625 316.808594 L 431.203125 324.929688 L 458.378906 318.402344 Z M 438.0625 316.808594 "/>
<path style=" stroke:none;fill-rule:evenodd;fill:rgb(63.529414%,50.980395%,11.764706%);fill-opacity:1;" d="M 438.0625 316.808594 L 431.203125 324.929688 L 433.316406 297.007812 Z M 438.0625 316.808594 "/>
<path style=" stroke:none;fill-rule:evenodd;fill:rgb(90.980393%,79.215688%,15.686275%);fill-opacity:1;" d="M 433.316406 297.007812 L 431.203125 324.929688 L 425.523438 315.835938 Z M 433.316406 297.007812 "/>
<path style=" stroke:none;fill-rule:evenodd;fill:rgb(78.823531%,63.529414%,5.490196%);fill-opacity:1;" d="M 425.523438 315.835938 L 431.203125 324.929688 L 405.214844 314.226562 Z M 425.523438 315.835938 "/>
<path style=" stroke:none;fill-rule:evenodd;fill:rgb(86.666667%,72.549021%,2.745098%);fill-opacity:1;" d="M 405.214844 314.226562 L 431.203125 324.929688 L 420.71875 327.457031 Z M 405.214844 314.226562 "/>
<path style=" stroke:none;fill-rule:evenodd;fill:rgb(90.980393%,79.607844%,30.588236%);fill-opacity:1;" d="M 249.863281 109.675781 L 249.863281 249.871094 L 236.191406 181.132812 Z M 249.863281 109.675781 "/>
<path style=" stroke:none;fill-rule:evenodd;fill:rgb(63.529414%,50.980395%,11.764706%);fill-opacity:1;" d="M 249.863281 109.675781 L 249.863281 249.871094 L 263.53125 181.132812 Z M 249.863281 109.675781 "/>
<path style=" stroke:none;fill-rule:evenodd;fill:rgb(63.529414%,50.980395%,11.764706%);fill-opacity:1;" d="M 249.863281 390.066406 L 249.863281 249.871094 L 263.53125 318.617188 Z M 249.863281 390.066406 "/>
<path style=" stroke:none;fill-rule:evenodd;fill:rgb(78.823531%,63.529414%,5.490196%);fill-opacity:1;" d="M 249.863281 390.066406 L 249.863281 249.871094 L 236.191406 318.617188 Z M 249.863281 390.066406 "/>
<path style=" stroke:none;fill-rule:evenodd;fill:rgb(78.823531%,63.529414%,5.490196%);fill-opacity:1;" d="M 109.675781 249.871094 L 249.863281 249.871094 L 181.132812 263.542969 Z M 109.675781 249.871094 "/>
<path style=" stroke:none;fill-rule:evenodd;fill:rgb(86.666667%,72.549021%,2.745098%);fill-opacity:1;" d="M 109.675781 249.871094 L 249.863281 249.871094 L 181.132812 236.203125 Z M 109.675781 249.871094 "/>
<g clip-path="url(#clip1)" clip-rule="nonzero">
<g clip-path="url(#clip2)" clip-rule="nonzero">
<path style=" stroke:none;fill-rule:nonzero;fill:url(#linear0);" d="M 249.863281 236.203125 L 390.058594 236.203125 L 390.058594 249.871094 L 249.863281 249.871094 Z M 249.863281 236.203125 "/>
</g>
</g>
<g clip-path="url(#clip3)" clip-rule="nonzero">
<g clip-path="url(#clip4)" clip-rule="nonzero">
<path style=" stroke:none;fill-rule:nonzero;fill:url(#linear1);" d="M 249.863281 249.871094 L 390.058594 249.871094 L 390.058594 263.542969 L 249.863281 263.542969 Z M 249.863281 249.871094 "/>
</g>
</g>
<path style=" stroke:none;fill-rule:evenodd;fill:rgb(86.666667%,72.549021%,2.745098%);fill-opacity:1;" d="M 150.738281 150.746094 L 249.863281 249.871094 L 191.589844 210.929688 Z M 150.738281 150.746094 "/>
<path style=" stroke:none;fill-rule:evenodd;fill:rgb(78.823531%,63.529414%,5.490196%);fill-opacity:1;" d="M 150.738281 150.746094 L 249.863281 249.871094 L 210.929688 191.601562 Z M 150.738281 150.746094 "/>
<path style=" stroke:none;fill-rule:evenodd;fill:rgb(71.372551%,57.647061%,9.803922%);fill-opacity:1;" d="M 348.996094 348.996094 L 249.863281 249.871094 L 308.144531 288.816406 Z M 348.996094 348.996094 "/>
<g clip-path="url(#clip5)" clip-rule="nonzero">
<g clip-path="url(#clip6)" clip-rule="nonzero">
<path style=" stroke:none;fill-rule:nonzero;fill:url(#linear2);" d="M 249.863281 249.871094 L 348.996094 249.871094 L 348.996094 349.007812 L 249.863281 349.007812 Z M 249.863281 249.871094 "/>
</g>
</g>
<path style=" stroke:none;fill-rule:evenodd;fill:rgb(71.372551%,57.647061%,9.803922%);fill-opacity:1;" d="M 150.738281 348.996094 L 249.863281 249.871094 L 210.929688 308.144531 Z M 150.738281 348.996094 "/>
<path style=" stroke:none;fill-rule:evenodd;fill:rgb(86.666667%,72.549021%,2.745098%);fill-opacity:1;" d="M 150.738281 348.996094 L 249.863281 249.871094 L 191.601562 288.816406 Z M 150.738281 348.996094 "/>
<g clip-path="url(#clip7)" clip-rule="nonzero">
<g clip-path="url(#clip8)" clip-rule="nonzero">
<path style=" stroke:none;fill-rule:nonzero;fill:url(#linear3);" d="M 249.863281 150.738281 L 348.996094 150.738281 L 348.996094 249.871094 L 249.863281 249.871094 Z M 249.863281 150.738281 "/>
</g>
</g>
<g clip-path="url(#clip9)" clip-rule="nonzero">
<g clip-path="url(#clip10)" clip-rule="nonzero">
<path style=" stroke:none;fill-rule:nonzero;fill:url(#linear4);" d="M 249.863281 150.738281 L 348.996094 150.738281 L 348.996094 249.871094 L 249.863281 249.871094 Z M 249.863281 150.738281 "/>
</g>
</g>
<path style=" stroke:none;fill-rule:evenodd;fill:rgb(90.980393%,79.215688%,15.686275%);fill-opacity:1;" d="M 210.917969 191.601562 L 249.863281 249.871094 L 206.945312 146.261719 Z M 210.917969 191.601562 "/>
<path style=" stroke:none;fill-rule:evenodd;fill:rgb(71.372551%,57.647061%,9.803922%);fill-opacity:1;" d="M 236.203125 181.132812 L 249.863281 249.871094 L 206.945312 146.261719 Z M 236.203125 181.132812 "/>
<path style=" stroke:none;fill-rule:evenodd;fill:rgb(63.529414%,50.980395%,11.764706%);fill-opacity:1;" d="M 288.816406 308.152344 L 249.863281 249.871094 L 292.785156 353.488281 Z M 288.816406 308.152344 "/>
<g clip-path="url(#clip11)" clip-rule="nonzero">
<g clip-path="url(#clip12)" clip-rule="nonzero">
<path style=" stroke:none;fill-rule:nonzero;fill:url(#linear5);" d="M 249.863281 249.871094 L 292.785156 249.871094 L 292.785156 353.488281 L 249.863281 353.488281 Z M 249.863281 249.871094 "/>
</g>
</g>
<path style=" stroke:none;fill-rule:evenodd;fill:rgb(71.372551%,57.647061%,9.803922%);fill-opacity:1;" d="M 191.582031 288.832031 L 249.863281 249.871094 L 146.246094 292.796875 Z M 191.582031 288.832031 "/>
<path style=" stroke:none;fill-rule:evenodd;fill:rgb(86.666667%,72.549021%,2.745098%);fill-opacity:1;" d="M 181.105469 263.558594 L 249.863281 249.871094 L 146.246094 292.796875 Z M 181.105469 263.558594 "/>
<g clip-path="url(#clip13)" clip-rule="nonzero">
<g clip-path="url(#clip14)" clip-rule="nonzero">
<path style=" stroke:none;fill-rule:nonzero;fill:url(#linear6);" d="M 249.863281 206.972656 L 353.460938 206.972656 L 353.460938 249.871094 L 249.863281 249.871094 Z M 249.863281 206.972656 "/>
</g>
</g>
<g clip-path="url(#clip15)" clip-rule="nonzero">
<g clip-path="url(#clip16)" clip-rule="nonzero">
<path style=" stroke:none;fill-rule:nonzero;fill:url(#linear7);" d="M 249.863281 206.972656 L 353.460938 206.972656 L 353.460938 249.871094 L 249.863281 249.871094 Z M 249.863281 206.972656 "/>
</g>
</g>
<path style=" stroke:none;fill-rule:evenodd;fill:rgb(78.823531%,63.529414%,5.490196%);fill-opacity:1;" d="M 181.105469 236.210938 L 249.863281 249.871094 L 146.246094 206.960938 Z M 181.105469 236.210938 "/>
<path style=" stroke:none;fill-rule:evenodd;fill:rgb(86.666667%,72.549021%,2.745098%);fill-opacity:1;" d="M 191.582031 210.929688 L 249.863281 249.871094 L 146.246094 206.960938 Z M 191.582031 210.929688 "/>
<path style=" stroke:none;fill-rule:evenodd;fill:rgb(71.372551%,57.647061%,9.803922%);fill-opacity:1;" d="M 318.617188 263.558594 L 249.863281 249.871094 L 353.472656 292.796875 Z M 318.617188 263.558594 "/>
<g clip-path="url(#clip17)" clip-rule="nonzero">
<g clip-path="url(#clip18)" clip-rule="nonzero">
<path style=" stroke:none;fill-rule:nonzero;fill:url(#linear8);" d="M 249.863281 249.871094 L 353.472656 249.871094 L 353.472656 292.796875 L 249.863281 292.796875 Z M 249.863281 249.871094 "/>
</g>
</g>
<path style=" stroke:none;fill-rule:evenodd;fill:rgb(71.372551%,57.647061%,9.803922%);fill-opacity:1;" d="M 236.191406 318.636719 L 249.863281 249.871094 L 206.9375 353.5 Z M 236.191406 318.636719 "/>
<path style=" stroke:none;fill-rule:evenodd;fill:rgb(78.823531%,63.529414%,5.490196%);fill-opacity:1;" d="M 210.902344 308.167969 L 249.863281 249.871094 L 206.9375 353.5 Z M 210.902344 308.167969 "/>
<g clip-path="url(#clip19)" clip-rule="nonzero">
<g clip-path="url(#clip20)" clip-rule="nonzero">
<path style=" stroke:none;fill-rule:nonzero;fill:url(#linear9);" d="M 249.863281 146.28125 L 292.769531 146.28125 L 292.769531 249.871094 L 249.863281 249.871094 Z M 249.863281 146.28125 "/>
</g>
</g>
<path style=" stroke:none;fill-rule:evenodd;fill:rgb(63.529414%,50.980395%,11.764706%);fill-opacity:1;" d="M 288.804688 191.613281 L 249.863281 249.871094 L 292.769531 146.28125 Z M 288.804688 191.613281 "/>
</g>
</svg>
